<mxfile host="app.diagrams.net" modified="2021-01-11T11:03:51.707Z" agent="5.0 (Windows NT 10.0; Win64; x64) AppleWebKit/537.36 (KHTML, like Gecko) Chrome/86.0.4240.198 Safari/537.36" etag="eZwDe_f56W_8TI_qomSf" version="14.1.9" type="github">
  <diagram id="C5RBs43oDa-KdzZeNtuy" name="Page-1">
    <mxGraphModel dx="2052" dy="1149" grid="1" gridSize="10" guides="1" tooltips="1" connect="1" arrows="1" fold="1" page="1" pageScale="1" pageWidth="827" pageHeight="1169" math="0" shadow="0">
      <root>
        <mxCell id="WIyWlLk6GJQsqaUBKTNV-0" />
        <mxCell id="WIyWlLk6GJQsqaUBKTNV-1" parent="WIyWlLk6GJQsqaUBKTNV-0" />
        <mxCell id="WIyWlLk6GJQsqaUBKTNV-2" value="" style="rounded=0;html=1;jettySize=auto;orthogonalLoop=1;fontSize=11;endArrow=block;endFill=0;endSize=8;strokeWidth=1;shadow=0;labelBackgroundColor=none;edgeStyle=orthogonalEdgeStyle;" parent="WIyWlLk6GJQsqaUBKTNV-1" source="WIyWlLk6GJQsqaUBKTNV-3" edge="1">
          <mxGeometry relative="1" as="geometry">
            <mxPoint x="100" y="340" as="targetPoint" />
          </mxGeometry>
        </mxCell>
        <mxCell id="WIyWlLk6GJQsqaUBKTNV-3" value="startRace()" style="rounded=1;whiteSpace=wrap;html=1;fontSize=12;glass=0;strokeWidth=1;shadow=0;" parent="WIyWlLk6GJQsqaUBKTNV-1" vertex="1">
          <mxGeometry x="40" y="220" width="120" height="40" as="geometry" />
        </mxCell>
        <mxCell id="LIdRWq2NEdVD9QOmzUUb-3" value="" style="edgeStyle=orthogonalEdgeStyle;rounded=0;orthogonalLoop=1;jettySize=auto;html=1;" edge="1" parent="WIyWlLk6GJQsqaUBKTNV-1" source="LIdRWq2NEdVD9QOmzUUb-0" target="LIdRWq2NEdVD9QOmzUUb-2">
          <mxGeometry relative="1" as="geometry" />
        </mxCell>
        <mxCell id="LIdRWq2NEdVD9QOmzUUb-0" value="draw()" style="rounded=1;whiteSpace=wrap;html=1;" vertex="1" parent="WIyWlLk6GJQsqaUBKTNV-1">
          <mxGeometry x="40" y="330" width="120" height="60" as="geometry" />
        </mxCell>
        <mxCell id="LIdRWq2NEdVD9QOmzUUb-6" value="" style="edgeStyle=orthogonalEdgeStyle;rounded=0;orthogonalLoop=1;jettySize=auto;html=1;" edge="1" parent="WIyWlLk6GJQsqaUBKTNV-1" source="LIdRWq2NEdVD9QOmzUUb-2" target="LIdRWq2NEdVD9QOmzUUb-4">
          <mxGeometry relative="1" as="geometry" />
        </mxCell>
        <mxCell id="LIdRWq2NEdVD9QOmzUUb-2" value="update()" style="rounded=1;whiteSpace=wrap;html=1;" vertex="1" parent="WIyWlLk6GJQsqaUBKTNV-1">
          <mxGeometry x="40" y="450" width="120" height="60" as="geometry" />
        </mxCell>
        <mxCell id="LIdRWq2NEdVD9QOmzUUb-11" style="edgeStyle=orthogonalEdgeStyle;rounded=0;orthogonalLoop=1;jettySize=auto;html=1;exitX=0.5;exitY=1;exitDx=0;exitDy=0;entryX=0.5;entryY=0;entryDx=0;entryDy=0;entryPerimeter=0;" edge="1" parent="WIyWlLk6GJQsqaUBKTNV-1" source="LIdRWq2NEdVD9QOmzUUb-4" target="LIdRWq2NEdVD9QOmzUUb-7">
          <mxGeometry relative="1" as="geometry" />
        </mxCell>
        <mxCell id="LIdRWq2NEdVD9QOmzUUb-4" value="draw()&lt;br&gt;" style="rounded=1;whiteSpace=wrap;html=1;" vertex="1" parent="WIyWlLk6GJQsqaUBKTNV-1">
          <mxGeometry x="40" y="560" width="120" height="60" as="geometry" />
        </mxCell>
        <mxCell id="LIdRWq2NEdVD9QOmzUUb-10" value="no" style="edgeStyle=orthogonalEdgeStyle;rounded=0;orthogonalLoop=1;jettySize=auto;html=1;exitX=1;exitY=0.5;exitDx=0;exitDy=0;exitPerimeter=0;entryX=1;entryY=0.5;entryDx=0;entryDy=0;" edge="1" parent="WIyWlLk6GJQsqaUBKTNV-1" source="LIdRWq2NEdVD9QOmzUUb-7" target="LIdRWq2NEdVD9QOmzUUb-2">
          <mxGeometry relative="1" as="geometry">
            <mxPoint x="270" y="380" as="targetPoint" />
            <Array as="points">
              <mxPoint x="230" y="725" />
              <mxPoint x="230" y="480" />
            </Array>
          </mxGeometry>
        </mxCell>
        <mxCell id="LIdRWq2NEdVD9QOmzUUb-13" value="yes" style="edgeStyle=orthogonalEdgeStyle;rounded=0;orthogonalLoop=1;jettySize=auto;html=1;exitX=0.5;exitY=1;exitDx=0;exitDy=0;exitPerimeter=0;" edge="1" parent="WIyWlLk6GJQsqaUBKTNV-1" source="LIdRWq2NEdVD9QOmzUUb-7">
          <mxGeometry relative="1" as="geometry">
            <mxPoint x="100" y="860" as="targetPoint" />
          </mxGeometry>
        </mxCell>
        <mxCell id="LIdRWq2NEdVD9QOmzUUb-7" value="gameover&lt;br&gt;conditions&lt;br&gt;met?" style="strokeWidth=2;html=1;shape=mxgraph.flowchart.decision;whiteSpace=wrap;" vertex="1" parent="WIyWlLk6GJQsqaUBKTNV-1">
          <mxGeometry x="50" y="674.5" width="100" height="100" as="geometry" />
        </mxCell>
        <mxCell id="LIdRWq2NEdVD9QOmzUUb-16" style="edgeStyle=orthogonalEdgeStyle;rounded=0;orthogonalLoop=1;jettySize=auto;html=1;entryX=0;entryY=0.625;entryDx=0;entryDy=0;entryPerimeter=0;" edge="1" parent="WIyWlLk6GJQsqaUBKTNV-1" source="LIdRWq2NEdVD9QOmzUUb-14" target="LIdRWq2NEdVD9QOmzUUb-15">
          <mxGeometry relative="1" as="geometry" />
        </mxCell>
        <mxCell id="LIdRWq2NEdVD9QOmzUUb-26" style="edgeStyle=orthogonalEdgeStyle;rounded=0;orthogonalLoop=1;jettySize=auto;html=1;exitX=0.5;exitY=1;exitDx=0;exitDy=0;entryX=0.5;entryY=0;entryDx=0;entryDy=0;" edge="1" parent="WIyWlLk6GJQsqaUBKTNV-1" source="LIdRWq2NEdVD9QOmzUUb-14" target="LIdRWq2NEdVD9QOmzUUb-25">
          <mxGeometry relative="1" as="geometry" />
        </mxCell>
        <mxCell id="LIdRWq2NEdVD9QOmzUUb-14" value="afterGame()" style="rounded=1;whiteSpace=wrap;html=1;" vertex="1" parent="WIyWlLk6GJQsqaUBKTNV-1">
          <mxGeometry x="40" y="860" width="120" height="60" as="geometry" />
        </mxCell>
        <mxCell id="LIdRWq2NEdVD9QOmzUUb-23" style="edgeStyle=orthogonalEdgeStyle;rounded=0;orthogonalLoop=1;jettySize=auto;html=1;entryX=0.5;entryY=1;entryDx=0;entryDy=0;" edge="1" parent="WIyWlLk6GJQsqaUBKTNV-1" source="LIdRWq2NEdVD9QOmzUUb-15" target="LIdRWq2NEdVD9QOmzUUb-17">
          <mxGeometry relative="1" as="geometry" />
        </mxCell>
        <mxCell id="LIdRWq2NEdVD9QOmzUUb-15" value="UserInput:&lt;br&gt;Main Menu" style="html=1;strokeWidth=2;shape=manualInput;whiteSpace=wrap;rounded=1;size=26;arcSize=11;" vertex="1" parent="WIyWlLk6GJQsqaUBKTNV-1">
          <mxGeometry x="220" y="840" width="100" height="80" as="geometry" />
        </mxCell>
        <mxCell id="LIdRWq2NEdVD9QOmzUUb-19" style="edgeStyle=orthogonalEdgeStyle;rounded=0;orthogonalLoop=1;jettySize=auto;html=1;exitX=0;exitY=0.5;exitDx=0;exitDy=0;entryX=1;entryY=0.5;entryDx=0;entryDy=0;" edge="1" parent="WIyWlLk6GJQsqaUBKTNV-1" source="LIdRWq2NEdVD9QOmzUUb-17" target="LIdRWq2NEdVD9QOmzUUb-18">
          <mxGeometry relative="1" as="geometry" />
        </mxCell>
        <mxCell id="LIdRWq2NEdVD9QOmzUUb-17" value="mainMenu()" style="rounded=1;whiteSpace=wrap;html=1;" vertex="1" parent="WIyWlLk6GJQsqaUBKTNV-1">
          <mxGeometry x="210" y="10" width="120" height="60" as="geometry" />
        </mxCell>
        <mxCell id="LIdRWq2NEdVD9QOmzUUb-20" style="edgeStyle=orthogonalEdgeStyle;rounded=0;orthogonalLoop=1;jettySize=auto;html=1;exitX=0.5;exitY=1;exitDx=0;exitDy=0;entryX=0.5;entryY=0;entryDx=0;entryDy=0;" edge="1" parent="WIyWlLk6GJQsqaUBKTNV-1" source="LIdRWq2NEdVD9QOmzUUb-18" target="WIyWlLk6GJQsqaUBKTNV-3">
          <mxGeometry relative="1" as="geometry" />
        </mxCell>
        <mxCell id="LIdRWq2NEdVD9QOmzUUb-18" value="UserInput:&lt;br&gt;Start Race" style="html=1;strokeWidth=2;shape=manualInput;whiteSpace=wrap;rounded=1;size=26;arcSize=11;" vertex="1" parent="WIyWlLk6GJQsqaUBKTNV-1">
          <mxGeometry x="50" y="5" width="100" height="70" as="geometry" />
        </mxCell>
        <mxCell id="LIdRWq2NEdVD9QOmzUUb-27" value="yes" style="edgeStyle=orthogonalEdgeStyle;rounded=0;orthogonalLoop=1;jettySize=auto;html=1;exitX=0.5;exitY=1;exitDx=0;exitDy=0;" edge="1" parent="WIyWlLk6GJQsqaUBKTNV-1" source="LIdRWq2NEdVD9QOmzUUb-25" target="LIdRWq2NEdVD9QOmzUUb-28">
          <mxGeometry relative="1" as="geometry">
            <mxPoint x="100" y="1090" as="targetPoint" />
          </mxGeometry>
        </mxCell>
        <mxCell id="LIdRWq2NEdVD9QOmzUUb-25" value="3 minutes idle?" style="rhombus;whiteSpace=wrap;html=1;" vertex="1" parent="WIyWlLk6GJQsqaUBKTNV-1">
          <mxGeometry x="60" y="950" width="80" height="80" as="geometry" />
        </mxCell>
        <mxCell id="LIdRWq2NEdVD9QOmzUUb-31" value="" style="edgeStyle=orthogonalEdgeStyle;rounded=0;orthogonalLoop=1;jettySize=auto;html=1;" edge="1" parent="WIyWlLk6GJQsqaUBKTNV-1" source="LIdRWq2NEdVD9QOmzUUb-28" target="LIdRWq2NEdVD9QOmzUUb-30">
          <mxGeometry relative="1" as="geometry" />
        </mxCell>
        <mxCell id="LIdRWq2NEdVD9QOmzUUb-28" value="demoMode()&lt;br&gt;" style="rounded=1;whiteSpace=wrap;html=1;" vertex="1" parent="WIyWlLk6GJQsqaUBKTNV-1">
          <mxGeometry x="40" y="1060" width="120" height="60" as="geometry" />
        </mxCell>
        <mxCell id="LIdRWq2NEdVD9QOmzUUb-32" style="edgeStyle=orthogonalEdgeStyle;rounded=0;orthogonalLoop=1;jettySize=auto;html=1;exitX=1;exitY=0.5;exitDx=0;exitDy=0;entryX=1;entryY=0.5;entryDx=0;entryDy=0;" edge="1" parent="WIyWlLk6GJQsqaUBKTNV-1" source="LIdRWq2NEdVD9QOmzUUb-30" target="LIdRWq2NEdVD9QOmzUUb-17">
          <mxGeometry relative="1" as="geometry" />
        </mxCell>
        <mxCell id="LIdRWq2NEdVD9QOmzUUb-30" value="UserInput:&lt;br&gt;any" style="html=1;strokeWidth=2;shape=manualInput;whiteSpace=wrap;rounded=1;size=26;arcSize=11;" vertex="1" parent="WIyWlLk6GJQsqaUBKTNV-1">
          <mxGeometry x="200" y="1045" width="100" height="90" as="geometry" />
        </mxCell>
      </root>
    </mxGraphModel>
  </diagram>
</mxfile>
